<?xml version="1.0" encoding="UTF-8"?>
<svg id="_レイヤー_1" data-name="レイヤー_1" xmlns="http://www.w3.org/2000/svg" version="1.1" xmlns:xlink="http://www.w3.org/1999/xlink" viewBox="0 0 64 64">
  <!-- Generator: Adobe Illustrator 29.8.5, SVG Export Plug-In . SVG Version: 2.1.1 Build 2)  -->
  <defs>
    <style>
      .st0 {
        fill: #fff;
      }

      .st1 {
        fill: url(#_名称未設定グラデーション);
      }

      .st2 {
        fill: #193f64;
      }
    </style>
    <linearGradient id="_名称未設定グラデーション" data-name="名称未設定グラデーション" x1="-912.52" y1="565.08" x2="-911.52" y2="564.08" gradientTransform="translate(58401 36165) scale(64 -64)" gradientUnits="userSpaceOnUse">
      <stop offset="0" stop-color="#0f172a"/>
      <stop offset="1" stop-color="#0369a1"/>
    </linearGradient>
  </defs>
  <rect class="st1" width="64" height="64" rx="16" ry="16"/>
  <g>
    <path class="st0" d="M15.87,31.82c0-.52-.48-.92-.99-.81-2.4.51-4.19,2.64-4.19,5.18s1.8,4.67,4.19,5.18c.51.11.99-.29.99-.81v-8.75Z"/>
    <path class="st0" d="M48.36,31.82c0-.52.48-.92.99-.81,2.4.51,4.19,2.64,4.19,5.18s-1.8,4.67-4.19,5.18c-.51.11-.99-.29-.99-.81v-8.75Z"/>
    <rect class="st0" x="17.66" y="24.17" width="28.85" height="22.87" rx="6.97" ry="6.97"/>
    <g>
      <circle class="st2" cx="25.59" cy="34.36" r="2"/>
      <circle class="st2" cx="38.58" cy="34.36" r="2"/>
      <path class="st2" d="M34.91,39.62c-.07,0-.13.05-.15.11h0c-.29.95-1.41,1.65-2.67,1.65s-2.38-.69-2.67-1.65h0c-.02-.07-.08-.11-.15-.11h-.63c-.1,0-.18.1-.16.2h0c.32,1.45,1.84,2.5,3.61,2.5s3.28-1.05,3.61-2.5h0c.02-.1-.05-.2-.16-.2h-.63Z"/>
    </g>
    <g>
      <circle class="st0" cx="32.09" cy="13.69" r="2.31"/>
      <path class="st0" d="M32.23,22.78h-.29c-.33,0-.6-.28-.59-.61l.14-4.46c.01-.32.27-.57.59-.57h0c.32,0,.58.25.59.57l.14,4.46c.01.33-.26.61-.59.61Z"/>
    </g>
  </g>
</svg>