<?xml version="1.0" encoding="UTF-8"?>
<svg id="_レイヤー_1" data-name="レイヤー_1" xmlns="http://www.w3.org/2000/svg" version="1.1" xmlns:xlink="http://www.w3.org/1999/xlink" viewBox="0 0 1200 630">
  <!-- Generator: Adobe Illustrator 29.8.5, SVG Export Plug-In . SVG Version: 2.1.1 Build 2)  -->
  <defs>
    <style>
      .st0 {
        fill: #fff;
      }

      .st1 {
        fill: #e2e8f0;
        font-family: SegoeUI-Semibold, 'Segoe UI';
        font-size: 30px;
        font-weight: 600;
      }

      .st1, .st2, .st3, .st4, .st5 {
        isolation: isolate;
      }

      .st6 {
        fill: url(#_名称未設定グラデーション_2);
      }

      .st2 {
        fill: #bae6fd;
        font-family: SegoeUI, 'Segoe UI';
      }

      .st2, .st5 {
        font-size: 28px;
      }

      .st3 {
        fill: #f8fafc;
        font-size: 74px;
      }

      .st3, .st5 {
        font-family: SegoeUI-Bold, 'Segoe UI';
        font-weight: 700;
      }

      .st7 {
        fill: url(#_名称未設定グラデーション);
      }

      .st8 {
        fill: #193f64;
      }

      .st4 {
        fill: #cbd5e1;
        font-family: KozGoPr6N-Regular-90ms-RKSJ-H, 'Kozuka Gothic Pr6N';
        font-size: 34px;
      }

      .st5 {
        fill: #082f49;
      }

      .st9 {
        fill: #2ea8e1;
        opacity: .27;
        stroke: #000;
        stroke-miterlimit: 10;
      }
    </style>
    <linearGradient id="_名称未設定グラデーション" data-name="名称未設定グラデーション" x1="-358.7" y1="855.64" x2="-357.7" y2="854.64" gradientTransform="translate(430441 539056) scale(1200 -630)" gradientUnits="userSpaceOnUse">
      <stop offset="0" stop-color="#0f172a"/>
      <stop offset="1" stop-color="#075985"/>
    </linearGradient>
    <linearGradient id="_名称未設定グラデーション_2" data-name="名称未設定グラデーション 2" x1="-357.45" y1="851.19" x2="-356.45" y2="851.19" gradientTransform="translate(83229 44410) scale(232 -52)" gradientUnits="userSpaceOnUse">
      <stop offset="0" stop-color="#0284c7"/>
      <stop offset="1" stop-color="#22d3ee"/>
    </linearGradient>
  </defs>
  <rect class="st7" width="1200" height="630"/>
  <circle class="st9" cx="1060" cy="110" r="210"/>
  <circle class="st9" cx="180" cy="560" r="220"/>
  <g>
    <path class="st6" d="M326,122h180c14.36,0,26,11.64,26,26h0c0,14.36-11.64,26-26,26h-180c-14.36,0-26-11.64-26-26h0c0-14.36,11.64-26,26-26Z"/>
    <text class="st5" transform="translate(314.49 156)"><tspan x="0" y="0">Dify Connected</tspan></text>
    <text class="st3" transform="translate(300 246)"><tspan x="0" y="0">AI Avatar PoC</tspan></text>
    <text class="st4" transform="translate(300 308)"><tspan x="0" y="0">会話・表情・音声をつなぐ社内デモ基盤</tspan></text>
    <g>
      <rect class="st9" x="300" y="366" width="744" height="180" rx="24" ry="24"/>
      <text class="st1" transform="translate(332 436)"><tspan x="0" y="0">mode: dify / status: connected</tspan></text>
      <text class="st2" transform="translate(332 497)"><tspan x="0" y="0">Dify -&gt; face+text -&gt; Avatar UI -&gt; Browser TTS</tspan></text>
    </g>
  </g>
  <g>
    <path class="st0" d="M111.55,181.83c0-1.66-1.52-2.91-3.14-2.56-7.6,1.61-13.3,8.36-13.3,16.44s5.7,14.82,13.3,16.44c1.62.34,3.14-.91,3.14-2.56v-27.75Z"/>
    <path class="st0" d="M214.56,181.83c0-1.66,1.52-2.91,3.14-2.56,7.6,1.61,13.3,8.36,13.3,16.44s-5.7,14.82-13.3,16.44c-1.62.34-3.14-.91-3.14-2.56v-27.75Z"/>
    <rect class="st0" x="117.23" y="157.56" width="91.46" height="72.52" rx="22.09" ry="22.09"/>
    <g>
      <circle class="st8" cx="142.36" cy="189.88" r="6.35"/>
      <circle class="st8" cx="183.56" cy="189.88" r="6.35"/>
      <path class="st8" d="M171.91,206.55c-.23,0-.42.15-.49.36h0c-.91,3.03-4.47,5.22-8.46,5.22s-7.55-2.2-8.46-5.22h0c-.06-.22-.26-.36-.49-.36h-1.99c-.33,0-.57.3-.5.62h0c1.03,4.59,5.84,7.91,11.44,7.91s10.41-3.33,11.44-7.91h0c.07-.32-.17-.62-.5-.62h-1.99Z"/>
    </g>
    <g>
      <circle class="st0" cx="162.96" cy="124.34" r="7.32"/>
      <path class="st0" d="M163.41,153.17h-.92c-1.06,0-1.9-.87-1.87-1.93l.46-14.13c.03-1.01.86-1.81,1.87-1.81h0c1.01,0,1.84.8,1.87,1.81l.46,14.13c.03,1.06-.81,1.93-1.87,1.93Z"/>
    </g>
  </g>
</svg>